# xmcd
#
# Track frame offsets:
#	150
#	15364
#	29749
#	46512
#	58580
#	71317
#	85965
#	101173
#	116715
#	134890
#
# Disc length: 2028 seconds
#
# Revision: 0
# Processed by: cddbd v1.5.2PL0 Copyright (c) Steve Scherf et al.
# Submitted via: dBpowerAMP V4.0
#
DISCID=8607ea0a
DTITLE=Nikki Lee - Countryfied
DYEAR=2006
DGENRE=Country
TTITLE0=Zip, Zero, Nada, Nothin`
TTITLE1=Countryfied
TTITLE2=Nothin` Like A Good Rain
TTITLE3=Little Did I Know
TTITLE4=I Got You
TTITLE5=One-Eighty
TTITLE6=Underappreciated
TTITLE7=Red, White and True
TTITLE8=What A Heart Will Do For Love
TTITLE9=Ooo La La
EXTD=
EXTT0=
EXTT1=
EXTT2=
EXTT3=
EXTT4=
EXTT5=
EXTT6=
EXTT7=
EXTT8=
EXTT9=
PLAYORDER=
